HIERARCHY
ROOT Hips
{
  OFFSET 5.80788e-005 67.184 3.4734
  CHANNELS 6 Xposition Yposition Zposition Zrotation Xrotation Yrotation
  JOINT Chest
  {
    OFFSET 0 8.7983 -4.7612
    CHANNELS 6 Xposition Yposition Zposition Zrotation Xrotation Yrotation
    JOINT Chest2
    {
      OFFSET 0 8.0291 0.4195
      CHANNELS 6 Xposition Yposition Zposition Zrotation Xrotation Yrotation
      JOINT Chest3
      {
        OFFSET 0 9.9351 -2.2114
        CHANNELS 6 Xposition Yposition Zposition Zrotation Xrotation Yrotation
        JOINT Neck
        {
          OFFSET 0 22.3885 -0.4656
          CHANNELS 6 Xposition Yposition Zposition Zrotation Xrotation Yrotation
          JOINT Head
          {
            OFFSET -0.0001 12.643 3.4389
            CHANNELS 6 Xposition Yposition Zposition Zrotation Xrotation Yrotation
            End Site
            {
              OFFSET 0.0001 17.6655 0.5274
            }
          }
        }
        JOINT LeftCollar
        {
          OFFSET 2.2603 21.606 7.4023
          CHANNELS 6 Xposition Yposition Zposition Zrotation Xrotation Yrotation
          JOINT LeftShoulder
          {
            OFFSET 13.5163 -1.1332 -5.0146
            CHANNELS 6 Xposition Yposition Zposition Zrotation Xrotation Yrotation
            JOINT LeftElbow
            {
              OFFSET -0.0995 -28.05 -0.2431
              CHANNELS 6 Xposition Yposition Zposition Zrotation Xrotation Yrotation
              JOINT LeftWrist
              {
                OFFSET 0.0679 -23.3996 -0.1402
                CHANNELS 6 Xposition Yposition Zposition Zrotation Xrotation Yrotation
                JOINT LeftFinger1
                {
                  OFFSET 0.7932 -9.069 2.5189
                  CHANNELS 6 Xposition Yposition Zposition Zrotation Xrotation Yrotation
                  JOINT LeftFinger11
                  {
                    OFFSET -0.8272 -3.3923 0.5977
                    CHANNELS 6 Xposition Yposition Zposition Zrotation Xrotation Yrotation
                    JOINT LeftFinger12
                    {
                      OFFSET -0.5649 -2.3158 0.4082
                      CHANNELS 6 Xposition Yposition Zposition Zrotation Xrotation Yrotation
                      End Site
                      {
                        OFFSET -0.4919 -1.6479 0.2673
                      }
                    }
                  }
                }
                JOINT LeftFinger2
                {
                  OFFSET 0.9159 -9.2044 0.2193
                  CHANNELS 6 Xposition Yposition Zposition Zrotation Xrotation Yrotation
                  JOINT LeftFinger21
                  {
                    OFFSET 0.0117 -4.1944 -0.0248
                    CHANNELS 6 Xposition Yposition Zposition Zrotation Xrotation Yrotation
                    JOINT LeftFinger22
                    {
                      OFFSET 0.0071 -2.3249 -0.0142
                      CHANNELS 6 Xposition Yposition Zposition Zrotation Xrotation Yrotation
                      End Site
                      {
                        OFFSET -0.1475 -2.0882 0.0028
                      }
                    }
                  }
                }
                JOINT LeftFinger3
                {
                  OFFSET 0.6113 -8.7231 -2.0637
                  CHANNELS 6 Xposition Yposition Zposition Zrotation Xrotation Yrotation
                  JOINT LeftFinger31
                  {
                    OFFSET -0.1927 -3.8059 -0.2383
                    CHANNELS 6 Xposition Yposition Zposition Zrotation Xrotation Yrotation
                    JOINT LeftFinger32
                    {
                      OFFSET -0.1091 -2.1688 -0.1362
                      CHANNELS 6 Xposition Yposition Zposition Zrotation Xrotation Yrotation
                      End Site
                      {
                        OFFSET -0.2358 -1.9176 -0.0906
                      }
                    }
                  }
                }
                JOINT LeftFinger4
                {
                  OFFSET -0.6151 -8.0947 -3.5641
                  CHANNELS 6 Xposition Yposition Zposition Zrotation Xrotation Yrotation
                  JOINT LeftFinger41
                  {
                    OFFSET -0.4882 -2.341 -0.6462
                    CHANNELS 6 Xposition Yposition Zposition Zrotation Xrotation Yrotation
                    JOINT LeftFinger42
                    {
                      OFFSET -0.3575 -1.7167 -0.4742
                      CHANNELS 6 Xposition Yposition Zposition Zrotation Xrotation Yrotation
                      End Site
                      {
                        OFFSET -0.4187 -1.5237 -0.3496
                      }
                    }
                  }
                }
                JOINT LeftFinger0
                {
                  OFFSET -1.42 -1.8761 1.4223
                  CHANNELS 6 Xposition Yposition Zposition Zrotation Xrotation Yrotation
                  JOINT LeftFinger01
                  {
                    OFFSET -1.1471 -3.4929 2.6334
                    CHANNELS 6 Xposition Yposition Zposition Zrotation Xrotation Yrotation
                    JOINT LeftFinger02
                    {
                      OFFSET -0.823 -2.3 1.6571
                      CHANNELS 6 Xposition Yposition Zposition Zrotation Xrotation Yrotation
                      End Site
                      {
                        OFFSET -0.5822 -1.6914 1.1582
                      }
                    }
                  }
                }
              }
            }
          }
        }
        JOINT RightCollar
        {
          OFFSET -2.2603 21.606 7.4023
          CHANNELS 6 Xposition Yposition Zposition Zrotation Xrotation Yrotation
          JOINT RightShoulder
          {
            OFFSET -13.5187 -1.1334 -5.0155
            CHANNELS 6 Xposition Yposition Zposition Zrotation Xrotation Yrotation
            JOINT RightElbow
            {
              OFFSET 0.0994 -28.0499 -0.2431
              CHANNELS 6 Xposition Yposition Zposition Zrotation Xrotation Yrotation
              JOINT RightWrist
              {
                OFFSET -0.0679 -23.3996 -0.1402
                CHANNELS 6 Xposition Yposition Zposition Zrotation Xrotation Yrotation
                JOINT RightFinger1
                {
                  OFFSET -0.7932 -9.0691 2.5189
                  CHANNELS 6 Xposition Yposition Zposition Zrotation Xrotation Yrotation
                  JOINT RightFinger11
                  {
                    OFFSET 0.8272 -3.3923 0.5977
                    CHANNELS 6 Xposition Yposition Zposition Zrotation Xrotation Yrotation
                    JOINT RightFinger12
                    {
                      OFFSET 0.565 -2.3158 0.4082
                      CHANNELS 6 Xposition Yposition Zposition Zrotation Xrotation Yrotation
                      End Site
                      {
                        OFFSET 0.4919 -1.6479 0.2673
                      }
                    }
                  }
                }
                JOINT RightFinger2
                {
                  OFFSET -0.916 -9.2044 0.2193
                  CHANNELS 6 Xposition Yposition Zposition Zrotation Xrotation Yrotation
                  JOINT RightFinger21
                  {
                    OFFSET -0.0117 -4.1944 -0.0248
                    CHANNELS 6 Xposition Yposition Zposition Zrotation Xrotation Yrotation
                    JOINT RightFinger22
                    {
                      OFFSET -0.0071 -2.3249 -0.0142
                      CHANNELS 6 Xposition Yposition Zposition Zrotation Xrotation Yrotation
                      End Site
                      {
                        OFFSET 0.1475 -2.0882 0.0028
                      }
                    }
                  }
                }
                JOINT RightFinger3
                {
                  OFFSET -0.6113 -8.7231 -2.0637
                  CHANNELS 6 Xposition Yposition Zposition Zrotation Xrotation Yrotation
                  JOINT RightFinger31
                  {
                    OFFSET 0.1927 -3.8059 -0.2383
                    CHANNELS 6 Xposition Yposition Zposition Zrotation Xrotation Yrotation
                    JOINT RightFinger32
                    {
                      OFFSET 0.1091 -2.1688 -0.1362
                      CHANNELS 6 Xposition Yposition Zposition Zrotation Xrotation Yrotation
                      End Site
                      {
                        OFFSET 0.2358 -1.9176 -0.0906
                      }
                    }
                  }
                }
                JOINT RightFinger4
                {
                  OFFSET 0.6151 -8.0947 -3.564
                  CHANNELS 6 Xposition Yposition Zposition Zrotation Xrotation Yrotation
                  JOINT RightFinger41
                  {
                    OFFSET 0.4882 -2.341 -0.6462
                    CHANNELS 6 Xposition Yposition Zposition Zrotation Xrotation Yrotation
                    JOINT RightFinger42
                    {
                      OFFSET 0.3574 -1.7166 -0.4742
                      CHANNELS 6 Xposition Yposition Zposition Zrotation Xrotation Yrotation
                      End Site
                      {
                        OFFSET 0.4187 -1.5237 -0.3496
                      }
                    }
                  }
                }
                JOINT RightFinger0
                {
                  OFFSET 1.4199 -1.8761 1.4221
                  CHANNELS 6 Xposition Yposition Zposition Zrotation Xrotation Yrotation
                  JOINT RightFinger01
                  {
                    OFFSET 1.1472 -3.4929 2.6336
                    CHANNELS 6 Xposition Yposition Zposition Zrotation Xrotation Yrotation
                    JOINT RightFinger02
                    {
                      OFFSET 0.8229 -2.3 1.6571
                      CHANNELS 6 Xposition Yposition Zposition Zrotation Xrotation Yrotation
                      End Site
                      {
                        OFFSET 0.5822 -1.6914 1.1582
                      }
                    }
                  }
                }
              }
            }
          }
        }
      }
    }
  }
  JOINT RightHip
  {
    OFFSET -9.412 3.9771 -0.7758
    CHANNELS 6 Xposition Yposition Zposition Zrotation Xrotation Yrotation
    JOINT RightKnee
    {
      OFFSET -0.7531 -40.938 0
      CHANNELS 6 Xposition Yposition Zposition Zrotation Xrotation Yrotation
      JOINT RightAnkle
      {
        OFFSET 0 -40.1986 0
        CHANNELS 6 Xposition Yposition Zposition Zrotation Xrotation Yrotation
        JOINT RightToe
        {
          OFFSET 0 -4.4182 9.239
          CHANNELS 6 Xposition Yposition Zposition Zrotation Xrotation Yrotation
          End Site
          {
            OFFSET 0 0 6.1981
          }
        }
      }
    }
  }
  JOINT LeftHip
  {
    OFFSET 9.4119 3.9773 -0.7758
    CHANNELS 6 Xposition Yposition Zposition Zrotation Xrotation Yrotation
    JOINT LeftKnee
    {
      OFFSET 0.7532 -40.9383 0
      CHANNELS 6 Xposition Yposition Zposition Zrotation Xrotation Yrotation
      JOINT LeftAnkle
      {
        OFFSET 0 -40.1986 0
        CHANNELS 6 Xposition Yposition Zposition Zrotation Xrotation Yrotation
        JOINT LeftToe
        {
          OFFSET 0 -4.4182 9.239
          CHANNELS 6 Xposition Yposition Zposition Zrotation Xrotation Yrotation
          End Site
          {
            OFFSET 0 0 6.1981
          }
        }
      }
    }
  }
}
MOTION
Frames:	4
Frame Time:	0.0333333
5.80788e-005 67.184 3.4734 0 0 -0 0 8.7983 -4.7612 0 0 -0 0 8.0291 0.4195 0 0 -0 0 9.9351 -2.2114 0 0 -0 0 22.3885 -0.4656 0 0 -0 -0.0001 12.643 3.4389 0 0 -0 2.2603 21.606 7.4023 0 0 -12.5014 13.5163 -1.1332 -5.0146 88.1196 14.2451 10.6914 -0.0995 -28.05 -0.2431 -0.00160068 -0.00239207 0.000740045 0.0679 -23.3996 -0.1402 -8.4365e-005 7.00714e-005 -9.52055e-007 0.7932 -9.069 2.5189 9.93923e-017 -1.98785e-016 -1.59028e-015 -0.8272 -3.3923 0.5977 9.93923e-017 -5.96354e-016 -1.59028e-015 -0.5649 -2.3158 0.4082 -9.93923e-017 -5.96354e-016 -1.59028e-015 0.9159 -9.2044 0.2193 9.93923e-017 -1.98785e-016 -1.59028e-015 0.0117 -4.1944 -0.0248 -0.0128176 0.00232552 8.52707e-005 0.0071 -2.3249 -0.0142 9.93923e-017 5.96354e-016 -0 0.6113 -8.7231 -2.0637 9.93923e-017 -1.98785e-016 -1.59028e-015 -0.1927 -3.8059 -0.2383 -0.0160551 0.00299681 0.000857156 -0.1091 -2.1688 -0.1362 -2.48481e-016 0 3.18055e-015 -0.6151 -8.0947 -3.5641 9.93923e-017 -1.98785e-016 -1.59028e-015 -0.4882 -2.341 -0.6462 -0.0125865 0.0031206 0.00282719 -0.3575 -1.7167 -0.4742 0 1.98785e-016 -0 -1.42 -1.8761 1.4223 9.93923e-017 -1.98785e-016 -1.59028e-015 -1.1471 -3.4929 2.6334 9.93923e-017 -5.96354e-016 -1.59028e-015 -0.823 -2.3 1.6571 -9.93923e-017 -5.96354e-016 -1.59028e-015 -2.2603 21.606 7.4023 -0.865644 0.16582 7.03859 -13.5187 -1.1334 -5.0155 -88.0329 10.2057 -10.5567 0.0994 -28.0499 -0.2431 0.0015593 -0.00248883 -0.000788628 -0.0679 -23.3996 -0.1402 7.87605e-005 4.10553e-005 1.24965e-005 -0.7932 -9.0691 2.5189 -3.97569e-016 -7.95139e-016 3.18055e-015 0.8272 -3.3923 0.5977 -1.98785e-016 -3.97569e-016 3.18055e-015 0.565 -2.3158 0.4082 -1.98785e-016 0 3.18055e-015 -0.916 -9.2044 0.2193 -3.97569e-016 -7.95139e-016 3.18055e-015 -0.0117 -4.1944 -0.0248 0.0129473 0.00231697 -8.70038e-005 -0.0071 -2.3249 -0.0142 9.93923e-017 -7.95139e-016 1.59028e-015 -0.6113 -8.7231 -2.0637 -3.97569e-016 -7.95139e-016 3.18055e-015 0.1927 -3.8059 -0.2383 0.0163314 0.00303369 -0.000872333 0.1091 -2.1688 -0.1362 3.97569e-016 7.95139e-016 -3.18055e-015 0.6151 -8.0947 -3.564 -3.97569e-016 -7.95139e-016 3.18055e-015 0.4882 -2.341 -0.6462 0.0145763 0.00367772 -0.00326275 0.3574 -1.7166 -0.4742 9.93923e-017 -3.97569e-016 -0 1.4199 -1.8761 1.4221 -3.97569e-016 -7.95139e-016 3.18055e-015 1.1472 -3.4929 2.6336 -1.98785e-016 -3.97569e-016 3.18055e-015 0.8229 -2.3 1.6571 -1.98785e-016 0 3.18055e-015 -9.412 3.9771 -0.7758 3.42485 1.36937 -0.0640303 -0.7531 -40.938 0 0.000136572 0.69354 0.00145564 1.77636e-015 -40.1986 -1.11022e-016 -3.42573 -2.06297 -0.0607933 8.88178e-016 -4.4182 9.239 -3.19502e-024 0 -1.48106e-024 9.4119 3.9773 -0.7758 -3.42498 1.36123 0.0639712 0.7532 -40.9383 2.22045e-016 -6.769e-005 0.712612 -0.0012277 8.88179e-016 -40.1986 0 3.42582 -2.07388 0.0612819 -8.88178e-016 -4.4182 9.239 2.55305e-023 0 -2.31416e-026 
1.63385 8.20071 11.5579 8.11758e-008 23.9991 -5.03299e-008 0 8.7983 -4.7612 0.0682455 17.3873 -0.539145 0 8.0291 0.4195 0.343669 34.7732 -1.19035 0 9.9351 -2.2114 0.343664 34.773 -1.19034 -1.11022e-016 22.3885 -0.4656 5.68281e-005 -48.0046 7.47582e-005 -0.0001 12.643 3.4389 4.73432e-007 -24.0027 3.36139e-007 2.2603 21.606 7.4023 37.7961 -4.15703 -29.9901 13.5163 -1.1332 -5.0146 97.6267 -55.9483 72.2353 -0.0995 -28.05 -0.2431 -1.93853 -67.3726 48.3598 0.0679 -23.3996 -0.1402 -50.4455 8.61676 2.39831 0.7932 -9.069 2.5189 -9.27119e-006 -4.68599e-006 1.874e-006 -0.8272 -3.3923 0.5977 1.19271e-014 5.56597e-015 6.36111e-015 -0.5649 -2.3158 0.4082 2.33259e-007 9.37795e-010 -1.55325e-006 0.9159 -9.2044 0.2193 -9.27119e-006 -4.68599e-006 1.874e-006 0.0117 -4.1944 -0.0248 -0.0127957 0.00232164 8.36312e-005 0.0071 -2.3249 -0.0142 -2.33471e-007 -1.98409e-006 1.55324e-006 0.6113 -8.7231 -2.0637 -9.27119e-006 -4.68599e-006 1.874e-006 -0.1927 -3.8059 -0.2383 -0.0160119 0.00299741 0.000859 -0.1091 -2.1688 -0.1362 2.38542e-015 -8.99742e-007 -6.36111e-015 -0.6151 -8.0947 -3.5641 -9.27119e-006 -4.68599e-006 1.874e-006 -0.4882 -2.341 -0.6462 -0.0125839 0.0031285 0.00282564 -0.3575 -1.7167 -0.4742 2.38542e-015 9.30117e-010 -0 -1.42 -1.8761 1.4223 -9.27119e-006 -4.68599e-006 1.874e-006 -1.1471 -3.4929 2.6334 1.19271e-014 5.56597e-015 6.36111e-015 -0.823 -2.3 1.6571 2.33259e-007 9.37795e-010 -1.55325e-006 -2.2603 21.606 7.4023 -19.2539 -2.27626 15.2115 -13.5187 -1.1334 -5.0155 -130.367 -59.4439 -44.5343 0.0994 -28.0499 -0.2431 14.4404 -47.0006 -47.892 -0.0679 -23.3996 -0.1402 60.6595 -40.9481 16.6375 -0.7932 -9.0691 2.5189 7.07545e-006 4.02011e-007 3.53132e-006 0.8272 -3.3923 0.5977 -8.69255e-008 -1.76828e-006 1.60227e-006 0.565 -2.3158 0.4082 -7.7526e-015 2.38542e-015 -3.18055e-015 -0.916 -9.2044 0.2193 7.07545e-006 4.02011e-007 3.53132e-006 -0.0117 -4.1944 -0.0248 0.0129644 0.00231598 -8.34914e-005 -0.0071 -2.3249 -0.0142 -1.72943e-014 -1.80624e-006 3.18055e-015 -0.6113 -8.7231 -2.0637 7.07545e-006 4.02011e-007 3.53132e-006 0.1927 -3.8059 -0.2383 0.0163655 0.00303978 -0.000879237 0.1091 -2.1688 -0.1362 2.78299e-015 1.59028e-015 9.54166e-015 0.6151 -8.0947 -3.564 7.07545e-006 4.02011e-007 3.53132e-006 0.4882 -2.341 -0.6462 0.0146089 0.00367877 -0.00326348 0.3574 -1.7166 -0.4742 -4.31288e-006 2.9277e-006 4.22836e-006 1.4199 -1.8761 1.4221 7.07545e-006 4.02011e-007 3.53132e-006 1.1472 -3.4929 2.6336 -8.69255e-008 -1.76828e-006 1.60227e-006 0.8229 -2.3 1.6571 -7.7526e-015 2.38542e-015 -3.18055e-015 -9.412 3.9771 -0.7758 -65.4391 -6.0906 -27.0737 -0.7531 -40.938 0 -129.719 87.9718 128.391 1.77636e-015 -40.1986 0 -3.01245 -3.77586 -1.33981 3.55271e-015 -4.4182 9.239 -1.69986e-006 -1.79292e-006 -1.34805e-006 9.4119 3.9773 -0.7758 65.4225 -6.09565 27.0697 0.7532 -40.9383 0 129.735 87.9714 -128.412 1.77636e-015 -40.1986 0 3.01278 -3.77662 1.33983 1.77636e-015 -4.4182 9.239 5.11317e-006 -5.2826e-006 1.45051e-006 
1.63383 8.29373 11.9428 5.92915e-008 23.7213 1.20806e-007 0 8.7983 -4.7612 0.0821323 17.4878 -0.551961 0 8.0291 0.4195 0.38015 34.9739 -1.22456 0 9.9351 -2.2114 0.380143 34.9737 -1.22455 1.11022e-016 22.3885 -0.4656 5.81939e-005 -48.0046 7.83569e-005 -0.0001 12.643 3.4389 0.24426 -24.2013 0.133014 2.2603 21.606 7.4023 38.7605 -2.19897 -29.8079 13.5163 -1.1332 -5.0146 99.6518 -55.5488 73.7847 -0.0995 -28.05 -0.2431 -2.24899 -67.4224 48.0495 0.0679 -23.3996 -0.1402 -49.7722 7.55805 1.19602 0.7932 -9.069 2.5189 -4.70375e-007 -2.12998e-007 3.10211e-006 -0.8272 -3.3923 0.5977 4.70375e-007 2.12998e-007 -3.10211e-006 -0.5649 -2.3158 0.4082 7.95139e-016 3.18055e-015 -3.18055e-015 0.9159 -9.2044 0.2193 -4.70375e-007 -2.12998e-007 3.10211e-006 0.0117 -4.1944 -0.0248 -0.0128301 0.00232828 8.27954e-005 0.0071 -2.3249 -0.0142 -1.84104e-006 1.12397e-007 1.5599e-006 0.6113 -8.7231 -2.0637 -4.70375e-007 -2.12998e-007 3.10211e-006 -0.1927 -3.8059 -0.2383 -0.016059 0.00298863 0.000860251 -0.1091 -2.1688 -0.1362 4.77083e-015 -1.59028e-015 -0 -0.6151 -8.0947 -3.5641 -4.70375e-007 -2.12998e-007 3.10211e-006 -0.4882 -2.341 -0.6462 -0.0126334 0.00312802 0.00283969 -0.3575 -1.7167 -0.4742 1.47101e-014 1.59028e-015 9.54166e-015 -1.42 -1.8761 1.4223 -4.70375e-007 -2.12998e-007 3.10211e-006 -1.1471 -3.4929 2.6334 4.70375e-007 2.12998e-007 -3.10211e-006 -0.823 -2.3 1.6571 7.95139e-016 3.18055e-015 -3.18055e-015 -2.2603 21.606 7.4023 -19.2283 -2.08342 15.4822 -13.5187 -1.1334 -5.0155 -130.367 -59.4439 -44.5342 0.0994 -28.0499 -0.2431 14.4404 -47.0006 -47.892 -0.0679 -23.3996 -0.1402 60.6595 -40.9481 16.6375 -0.7932 -9.0691 2.5189 -2.18663e-015 -1.19271e-015 -0 0.8272 -3.3923 0.5977 9.89186e-006 -4.32212e-007 4.45374e-006 0.565 -2.3158 0.4082 -8.85426e-006 2.96839e-006 -1.14936e-007 -0.916 -9.2044 0.2193 -2.18663e-015 -1.19271e-015 -0 -0.0117 -4.1944 -0.0248 0.0129769 0.00231895 -7.89199e-005 -0.0071 -2.3249 -0.0142 9.93923e-016 0 -3.18055e-015 -0.6113 -8.7231 -2.0637 -2.18663e-015 -1.19271e-015 -0 0.1927 -3.8059 -0.2383 0.0163337 0.00303596 -0.000870409 0.1091 -2.1688 -0.1362 8.54774e-015 0 -3.18055e-015 0.6151 -8.0947 -3.564 -2.18663e-015 -1.19271e-015 -0 0.4882 -2.341 -0.6462 0.0145823 0.00367908 -0.00326222 0.3574 -1.7166 -0.4742 -8.94531e-016 -7.95139e-016 -0 1.4199 -1.8761 1.4221 -2.18663e-015 -1.19271e-015 -0 1.1472 -3.4929 2.6336 9.89186e-006 -4.32212e-007 4.45374e-006 0.8229 -2.3 1.6571 -8.85426e-006 2.96839e-006 -1.14936e-007 -9.412 3.9771 -0.7758 -65.0748 -5.5634 -26.6711 -0.7531 -40.938 -1.77636e-015 -113.636 88.354 112.334 0 -40.1986 -7.10543e-015 -2.97221 -3.64167 -1.50045 1.77636e-015 -4.4182 9.239 -3.20043e-006 5.11259e-006 -6.41722e-006 9.4119 3.9773 -0.7758 65.0375 -5.57444 26.6445 0.7532 -40.9383 0 113.62 88.3535 -112.322 1.77636e-015 -40.1986 -7.10543e-015 2.95385 -3.64274 1.52331 0 -4.4182 9.239 9.93923e-017 3.97569e-016 -8.30547e-015 
1.63382 8.38692 12.3278 1.65721e-007 23.4435 -2.57848e-007 0 8.7983 -4.7612 0.0959428 17.5883 -0.564973 -2.22045e-016 8.0291 0.4195 0.416685 35.1746 -1.25932 -2.22045e-016 9.9351 -2.2114 0.416678 35.1744 -1.25931 -1.11022e-016 22.3885 -0.4656 5.96085e-005 -48.0046 8.01109e-005 -0.0001 12.643 3.4389 0.489549 -24.3996 0.26724 2.2603 21.606 7.4023 39.7236 -0.226306 -29.658 13.5163 -1.1332 -5.0146 101.487 -55.0539 75.1687 -0.0995001 -28.05 -0.2431 -2.61046 -67.5716 47.7278 0.0679 -23.3996 -0.1402 -49.1208 6.48194 0.00498696 0.7932 -9.069 2.5189 -5.1684e-015 -1.59028e-015 3.18055e-015 -0.8272 -3.3923 0.5977 -4.37326e-015 -1.59028e-015 3.18055e-015 -0.5649 -2.3158 0.4082 -4.77083e-015 -3.18055e-015 3.18055e-015 0.9159 -9.2044 0.2193 -5.1684e-015 -1.59028e-015 3.18055e-015 0.0117 -4.1944 -0.0248 -0.01283 0.00233069 8.80025e-005 0.0071 -2.3249 -0.0142 1.11319e-014 6.36111e-015 -3.18055e-015 0.6113 -8.7231 -2.0637 -5.1684e-015 -1.59028e-015 3.18055e-015 -0.1927 -3.8059 -0.2383 -0.0160328 0.00300018 0.000855781 -0.1091 -2.1688 -0.1362 4.77083e-015 -1.59028e-015 -0 -0.6151 -8.0947 -3.5641 -5.1684e-015 -1.59028e-015 3.18055e-015 -0.4882 -2.341 -0.6462 -0.0125744 0.0031158 0.0028289 -0.3575 -1.7167 -0.4742 -7.95139e-016 -3.18055e-015 6.36111e-015 -1.42 -1.8761 1.4223 -5.1684e-015 -1.59028e-015 3.18055e-015 -1.1471 -3.4929 2.6334 -4.37326e-015 -1.59028e-015 3.18055e-015 -0.823 -2.3 1.6571 -4.77083e-015 -3.18055e-015 3.18055e-015 -2.2603 21.606 7.4023 -19.2037 -1.89042 15.7528 -13.5187 -1.1334 -5.0155 -130.367 -59.4439 -44.5344 0.0994 -28.0499 -0.2431 14.4405 -47.0005 -47.892 -0.0679 -23.3996 -0.1402 60.6595 -40.9481 16.6374 -0.7932 -9.0691 2.5189 1.77178e-005 -5.77551e-006 5.80591e-008 0.8272 -3.3923 0.5977 -1.19271e-015 1.79802e-006 -9.54166e-015 0.565 -2.3158 0.4082 2.98177e-016 3.97569e-016 -3.18055e-015 -0.916 -9.2044 0.2193 1.77178e-005 -5.77551e-006 5.80591e-008 -0.0117 -4.1944 -0.0248 0.0129486 0.0023217 -8.7135e-005 -0.0071 -2.3249 -0.0142 6.75494e-008 8.96089e-007 -1.6111e-006 -0.6113 -8.7231 -2.0637 1.77178e-005 -5.77551e-006 5.80591e-008 0.1927 -3.8059 -0.2383 0.0163353 0.00304185 -0.000873602 0.1091 -2.1688 -0.1362 1.49089e-015 1.19271e-015 3.18055e-015 0.6151 -8.0947 -3.564 1.77178e-005 -5.77551e-006 5.80591e-008 0.4882 -2.341 -0.6462 0.0146185 0.0037001 -0.00326997 0.3574 -1.7166 -0.4742 1.78906e-015 7.95139e-016 -0 1.4199 -1.8761 1.4221 1.77178e-005 -5.77551e-006 5.80591e-008 1.1472 -3.4929 2.6336 -1.19271e-015 1.79802e-006 -9.54166e-015 0.8229 -2.3 1.6571 2.98177e-016 3.97569e-016 -3.18055e-015 -9.412 3.9771 -0.7758 -64.7138 -5.03367 -26.2723 -0.7531 -40.938 0 -90.937 88.5442 89.6608 -1.77636e-015 -40.1986 0 -2.93164 -3.50771 -1.66132 -3.55271e-015 -4.4182 9.239 9.93923e-017 -3.97569e-016 2.45064e-015 9.4119 3.9773 -0.7758 64.6561 -5.05025 26.2232 0.7532 -40.9383 -1.77636e-015 90.8831 88.5429 -89.6119 0 -40.1986 -7.10543e-015 2.89455 -3.50913 1.7071 0 -4.4182 9.239 -1.98785e-016 -7.95139e-016 -4.42606e-015 
